<?xml version="1.0" encoding="utf-8"?>
<!-- Generator: Adobe Illustrator 19.0.0, SVG Export Plug-In . SVG Version: 6.00 Build 0)  -->
<svg version="1.1" id="Layer_1" xmlns="http://www.w3.org/2000/svg" xmlns:xlink="http://www.w3.org/1999/xlink" x="0px" y="0px"
	 viewBox="0 0 527.9 225.4" enable-background="new 0 0 527.9 225.4" xml:space="preserve">
<g>
	<g>
		<g>
			<path fill="#333334" d="M273.6,54.3c1.2,0,2.2,0.4,3,1.3c0.8,0.9,1.2,1.9,1.2,3c0,1.2-0.4,2.1-1.2,2.9c-0.8,0.8-1.8,1.2-3,1.2
				h-0.2c-2.2,0-4.3-0.4-6.2-1.2c-1.9-0.8-3.6-1.9-5-3.2c-1.4-1.4-2.5-3-3.3-5c-0.8-1.9-1.2-4.1-1.2-6.5V4.2c0-1.2,0.4-2.2,1.2-3
				c0.8-0.8,1.7-1.2,2.9-1.2c1.2,0,2.2,0.4,3,1.2c0.9,0.8,1.3,1.8,1.3,3v42.6c0,2.4,0.7,4.2,2.1,5.5
				C269.5,53.7,271.3,54.3,273.6,54.3z"/>
			<path fill="#333334" d="M291.3,43.9c0.3,1.6,0.9,3.1,1.8,4.5c0.9,1.3,1.9,2.5,3.1,3.5c1.2,1,2.6,1.7,4.1,2.3
				c1.5,0.6,3.2,0.8,4.9,0.8c2,0,3.9-0.3,5.7-1c1.7-0.7,3.2-1.7,4.3-2.9c0.8-0.6,1.5-0.9,2.2-1c0.7-0.1,1.4-0.1,2,0.2
				c0.4,0.2,0.8,0.4,1.1,0.7c0.3,0.3,0.6,0.7,0.9,1c0.5,0.8,0.8,1.7,0.7,2.8c0,1-0.6,2-1.6,2.8c-0.8,0.8-1.7,1.5-2.7,2.2
				c-1,0.7-2.1,1.3-3.4,1.8c-1.3,0.5-2.7,0.9-4.2,1.2c-1.5,0.3-3.2,0.5-5.1,0.5c-3.2,0-6.2-0.6-9.1-1.8c-2.8-1.2-5.3-2.9-7.4-5
				c-2.1-2.1-3.8-4.6-5-7.4s-1.8-5.8-1.8-9.1c0-3.2,0.6-6.2,1.8-9.1c1.2-2.8,2.9-5.3,5-7.4c2.1-2.1,4.6-3.7,7.4-5
				c2.8-1.2,5.8-1.8,9.1-1.8c3.2,0,6.2,0.6,9,1.8c2.8,1.2,5.3,2.8,7.4,4.9c2.1,2.1,3.8,4.5,5,7.3c1.2,2.8,1.9,5.8,1.9,9
				c0,1.2-0.4,2.1-1.1,2.9s-1.8,1.1-3,1.1H291.3z M319.9,36.9c-0.3-1.7-0.9-3.3-1.7-4.7c-0.9-1.4-1.9-2.6-3.2-3.7
				c-1.3-1-2.7-1.8-4.4-2.4s-3.4-0.9-5.2-0.9c-1.8,0-3.6,0.3-5.2,0.9c-1.6,0.6-3,1.4-4.3,2.4c-1.3,1-2.3,2.2-3.1,3.7
				c-0.8,1.4-1.4,3-1.7,4.6H319.9z"/>
			<path fill="#333334" d="M351.7,48.9l12.9-29c0.1-0.3,0.4-0.6,0.7-1c0.3-0.4,0.7-0.7,1.1-0.9c0.4-0.3,0.9-0.4,1.5-0.5
				c0.6-0.1,1.2,0,1.9,0.2c0.8,0.3,1.4,0.7,1.8,1.2c0.4,0.5,0.7,1,0.8,1.5c0.1,0.5,0.1,1.1,0,1.6c-0.1,0.5-0.2,0.9-0.4,1.3l-3.6,8.2
				l7.9,17.3l12.9-28.8c0.2-0.4,0.4-0.8,0.8-1.2c0.4-0.4,0.8-0.7,1.3-1c0.5-0.3,1.1-0.4,1.7-0.4c0.6,0,1.3,0.2,2,0.5
				c0.5,0.3,0.9,0.6,1.2,1c0.3,0.4,0.6,0.9,0.7,1.4c0.1,0.5,0.2,1,0.2,1.5c0,0.5-0.1,1-0.3,1.4l-16.8,36.8c-0.4,0.7-0.8,1.4-1.3,1.8
				c-0.5,0.5-1.3,0.7-2.2,0.7c-1,0-1.8-0.2-2.6-0.7c-0.7-0.5-1.3-1.2-1.7-2.1l-8.4-19.1l-8.5,19.3c-0.4,0.7-0.9,1.4-1.6,1.8
				c-0.7,0.5-1.5,0.7-2.5,0.7c-0.1,0-0.4,0-0.7-0.1c-0.3,0-0.7-0.2-1-0.3c-0.4-0.2-0.7-0.4-1.1-0.8c-0.4-0.3-0.7-0.8-0.9-1.3
				l-16.6-36.7c-0.4-0.7-0.5-1.5-0.4-2.2c0.1-0.8,0.4-1.5,0.9-2.1c0.5-0.6,1-1.1,1.8-1.4c0.7-0.3,1.5-0.4,2.3-0.2
				c0.8,0.2,1.4,0.5,1.9,1c0.5,0.5,0.9,1,1.1,1.5L351.7,48.9z"/>
			<path fill="#333334" d="M403.4,7.1c0-1.4,0.5-2.5,1.4-3.4c0.9-0.9,2.1-1.4,3.4-1.4c1.4,0,2.5,0.5,3.4,1.4c0.9,0.9,1.4,2,1.4,3.4
				c0,0.6-0.1,1.3-0.4,1.8c-0.2,0.6-0.6,1.1-1,1.5c-0.4,0.4-0.9,0.8-1.5,1c-0.6,0.3-1.2,0.4-1.9,0.4c-0.6,0-1.3-0.1-1.8-0.4
				c-0.6-0.3-1.1-0.6-1.5-1c-0.4-0.4-0.8-0.9-1-1.5C403.5,8.3,403.4,7.7,403.4,7.1z M412.4,58.6c0,0.6-0.1,1.1-0.3,1.6
				c-0.2,0.5-0.5,0.9-0.9,1.3c-0.4,0.4-0.8,0.7-1.3,0.9c-0.5,0.2-1,0.3-1.6,0.3c-0.6,0-1.1-0.1-1.6-0.3c-0.5-0.2-0.9-0.5-1.3-0.9
				c-0.4-0.4-0.7-0.8-0.9-1.3c-0.2-0.5-0.3-1-0.3-1.6V21.7c0-1.2,0.4-2.2,1.3-3c0.8-0.8,1.8-1.2,3-1.2c1.2,0,2.2,0.4,3,1.2
				c0.8,0.8,1.2,1.8,1.2,3V58.6z"/>
			<path fill="#333334" d="M434.7,42.6c-1.4-0.6-2.9-1.2-4.4-1.9c-1.5-0.7-2.8-1.5-4.1-2.5c-1.2-1-2.2-2.2-3-3.6
				c-0.8-1.4-1.1-3-1.1-4.9c0-2,0.4-3.9,1.2-5.5c0.8-1.6,1.9-2.9,3.4-4c1.4-1.1,3.1-1.9,5-2.5c1.9-0.6,3.9-0.9,6.1-0.9
				c1.4,0,2.8,0.1,4.2,0.3c1.4,0.2,2.8,0.6,4,1.1c1.3,0.5,2.4,1.1,3.4,1.9c1,0.8,1.8,1.7,2.4,2.8c0.4,0.8,0.5,1.7,0.4,2.5
				c-0.1,0.8-0.4,1.5-0.9,2c-0.5,0.6-1.2,0.9-1.9,1.2c-0.7,0.2-1.5,0.2-2.2-0.2c-1.4-1.2-2.7-2.1-4-2.7c-1.3-0.6-2.9-0.9-4.8-0.9
				c-1.1,0-2.2,0.1-3.1,0.3c-1,0.2-1.8,0.5-2.5,0.9c-0.7,0.4-1.3,0.9-1.7,1.5c-0.4,0.6-0.6,1.4-0.6,2.2c0,0.8,0.2,1.5,0.7,2.1
				c0.5,0.6,1.1,1.1,1.9,1.5c0.8,0.4,1.7,0.8,2.8,1.1c1.1,0.3,2.2,0.7,3.5,1.1c2,0.6,3.9,1.3,5.7,2.1s3.4,1.7,4.8,2.8
				c1.4,1.1,2.4,2.4,3.3,3.8c0.8,1.5,1.2,3.3,1.2,5.3c0,1.9-0.4,3.7-1.2,5.4c-0.8,1.7-2,3.1-3.4,4.3s-3.2,2.2-5.1,2.9
				c-2,0.7-4.1,1-6.4,1c-1.6,0-3.2-0.1-4.9-0.4c-1.7-0.3-3.2-0.8-4.7-1.4c-1.5-0.7-2.9-1.5-4.1-2.6c-1.2-1-2.2-2.3-3-3.7
				c-0.6-1.2-0.8-2.3-0.6-3.3c0.3-1,0.8-1.7,1.5-2.2c0.8-0.5,1.7-0.7,2.8-0.5s2.2,0.7,3.3,1.7c0.9,1.3,2.2,2.4,3.9,3.2
				c1.7,0.8,3.6,1.3,5.8,1.3c1,0,2-0.1,2.9-0.4c0.9-0.3,1.8-0.6,2.5-1.1c0.7-0.5,1.3-1.1,1.7-1.7c0.4-0.7,0.6-1.4,0.6-2.3
				c0-0.9-0.4-1.7-1.1-2.4c-0.7-0.7-1.6-1.4-2.8-1.9c-1.1-0.6-2.3-1.1-3.6-1.5C437.1,43.4,435.8,43,434.7,42.6z"/>
		</g>
		<g>
			<path fill="#333334" d="M304.1,123.2L304.1,123.2v0.2v0.1c0,3.2-0.7,6.2-1.9,8.9c-1.3,2.8-2.9,5.2-5,7.3
				c-2.1,2.1-4.5,3.7-7.4,4.9c-2.8,1.2-5.8,1.8-8.9,1.8c-3.2,0-6.2-0.6-9.1-1.8s-5.3-2.9-7.4-5c-2.1-2.1-3.7-4.6-4.9-7.4
				c-1.2-2.8-1.8-5.8-1.8-9c0-3.2,0.6-6.2,1.8-9.1c1.2-2.8,2.8-5.3,4.9-7.4c2.1-2.1,4.6-3.7,7.4-5s5.8-1.8,9.1-1.8
				c2.8,0,5.5,0.5,8,1.4s4.8,2.3,6.8,3.9V87.6c0-1.2,0.4-2.3,1.2-3.1c0.8-0.8,1.8-1.3,3-1.3c1.2,0,2.2,0.4,3,1.3
				c0.8,0.8,1.2,1.9,1.2,3.1V123.2z M295.7,123.3c0-2-0.4-4-1.2-5.8c-0.8-1.8-1.8-3.4-3.2-4.7c-1.3-1.3-2.9-2.4-4.7-3.2
				c-1.8-0.8-3.7-1.1-5.8-1.1c-2.1,0-4,0.4-5.8,1.1c-1.8,0.8-3.4,1.8-4.7,3.2s-2.4,2.9-3.1,4.7c-0.8,1.8-1.1,3.7-1.1,5.8
				c0,2,0.4,3.9,1.1,5.7c0.8,1.8,1.8,3.4,3.1,4.7c1.3,1.3,2.9,2.4,4.7,3.2c1.8,0.8,3.7,1.2,5.8,1.2c2,0,4-0.4,5.8-1.2
				c1.8-0.8,3.4-1.9,4.7-3.2c1.3-1.3,2.4-2.9,3.2-4.7C295.3,127.2,295.7,125.3,295.7,123.3z"/>
			<path fill="#333334" d="M315.3,90.2c0-1.4,0.5-2.5,1.4-3.4c0.9-0.9,2.1-1.4,3.4-1.4c1.4,0,2.5,0.5,3.4,1.4c0.9,0.9,1.4,2,1.4,3.4
				c0,0.6-0.1,1.3-0.4,1.8c-0.2,0.6-0.6,1.1-1,1.5c-0.4,0.4-0.9,0.8-1.5,1c-0.6,0.3-1.2,0.4-1.9,0.4c-0.6,0-1.3-0.1-1.8-0.4
				c-0.6-0.3-1.1-0.6-1.5-1c-0.4-0.4-0.8-0.9-1-1.5C315.4,91.5,315.3,90.9,315.3,90.2z M324.3,141.7c0,0.6-0.1,1.1-0.3,1.6
				c-0.2,0.5-0.5,0.9-0.9,1.3c-0.4,0.4-0.8,0.7-1.3,0.9c-0.5,0.2-1,0.3-1.6,0.3s-1.1-0.1-1.6-0.3c-0.5-0.2-0.9-0.5-1.3-0.9
				c-0.4-0.4-0.7-0.8-0.9-1.3c-0.2-0.5-0.3-1-0.3-1.6v-36.8c0-1.2,0.4-2.2,1.3-3c0.8-0.8,1.8-1.2,3-1.2c1.2,0,2.2,0.4,3,1.2
				c0.8,0.8,1.2,1.8,1.2,3V141.7z"/>
			<path fill="#333334" d="M387.7,90.2c0-1.4,0.5-2.5,1.4-3.4c0.9-0.9,2.1-1.4,3.4-1.4c1.4,0,2.5,0.5,3.4,1.4c0.9,0.9,1.4,2,1.4,3.4
				c0,0.6-0.1,1.3-0.4,1.8c-0.2,0.6-0.6,1.1-1,1.5c-0.4,0.4-0.9,0.8-1.5,1c-0.6,0.3-1.2,0.4-1.9,0.4c-0.6,0-1.3-0.1-1.8-0.4
				c-0.6-0.3-1.1-0.6-1.5-1c-0.4-0.4-0.8-0.9-1-1.5C387.8,91.5,387.7,90.9,387.7,90.2z M396.7,141.7c0,0.6-0.1,1.1-0.3,1.6
				c-0.2,0.5-0.5,0.9-0.9,1.3c-0.4,0.4-0.8,0.7-1.3,0.9c-0.5,0.2-1,0.3-1.6,0.3c-0.6,0-1.1-0.1-1.6-0.3c-0.5-0.2-0.9-0.5-1.3-0.9
				c-0.4-0.4-0.7-0.8-0.9-1.3c-0.2-0.5-0.3-1-0.3-1.6v-36.8c0-1.2,0.4-2.2,1.3-3c0.8-0.8,1.8-1.2,3-1.2c1.2,0,2.2,0.4,3,1.2
				c0.8,0.8,1.2,1.8,1.2,3V141.7z"/>
			<path fill="#333334" d="M416.2,100.6h19.1c0.6,0,1.1,0.1,1.7,0.3c0.5,0.2,1,0.5,1.3,0.9c0.4,0.4,0.7,0.8,0.9,1.3
				c0.2,0.5,0.3,1,0.3,1.6s-0.1,1.1-0.3,1.6c-0.2,0.5-0.5,0.9-0.9,1.3c-0.4,0.4-0.8,0.7-1.4,0.9c-0.5,0.2-1.1,0.3-1.7,0.3h-19.1
				v14.6c0,2,0.4,3.9,1.2,5.7c0.8,1.8,1.8,3.3,3.2,4.6c1.3,1.3,2.9,2.3,4.7,3.1c1.8,0.7,3.7,1.1,5.8,1.1c1.8,0,3.6-0.3,5.1-0.8
				c1.6-0.5,3-1.4,4.4-2.7c0.3-0.3,0.5-0.5,0.8-0.7c0.3-0.2,0.6-0.3,0.9-0.5c0.6-0.3,1.3-0.3,2-0.2c0.7,0.1,1.4,0.4,2,1
				c0.5,0.4,0.8,0.9,1,1.5c0.2,0.6,0.3,1.2,0.2,1.8c0,0.6-0.2,1.2-0.4,1.8c-0.3,0.6-0.6,1.1-1.1,1.5c-2,1.9-4.2,3.3-6.8,4.3
				c-2.5,1-5.3,1.4-8.2,1.4c-3.2,0-6.2-0.6-9.1-1.8c-2.8-1.2-5.3-2.8-7.4-4.9c-2.1-2.1-3.7-4.5-5-7.3c-1.2-2.8-1.8-5.8-1.8-9V90.3
				c0-1.2,0.4-2.2,1.2-3.1c0.8-0.8,1.8-1.3,3-1.3c0.6,0,1.1,0.1,1.6,0.3c0.5,0.2,0.9,0.5,1.3,0.9c0.4,0.4,0.7,0.8,0.9,1.4
				c0.2,0.5,0.3,1.1,0.3,1.7V100.6z"/>
			<path fill="#333334" d="M451.3,123.3c0-3.2,0.6-6.2,1.8-9.1c1.2-2.8,2.9-5.3,5-7.4c2.1-2.1,4.6-3.7,7.4-5c2.8-1.2,5.8-1.8,9-1.8
				s6.2,0.6,9,1.8c2.8,1.2,5.2,2.8,7.3,4.9c2.1,2.1,3.8,4.5,5,7.3c1.2,2.8,1.9,5.8,1.9,9v0.2v18.3c0,1.2-0.4,2.2-1.2,3.1
				c-0.8,0.8-1.9,1.3-3.1,1.3c-1.2,0-2.2-0.4-2.9-1.3c-0.8-0.8-1.1-1.9-1.1-3.1l0-1c-2,1.8-4.3,3.2-6.7,4.3c-2.5,1.1-5.1,1.6-8,1.6
				c-3.2,0-6.2-0.6-9-1.8c-2.8-1.2-5.3-2.9-7.4-5c-2.1-2.1-3.8-4.6-5-7.4C451.9,129.5,451.3,126.5,451.3,123.3z M459.7,123.3
				c0,2,0.4,3.9,1.2,5.7c0.8,1.8,1.8,3.4,3.2,4.7c1.3,1.3,2.9,2.4,4.7,3.2c1.8,0.8,3.7,1.2,5.8,1.2c2.1,0,4-0.4,5.8-1.2
				c1.8-0.8,3.3-1.9,4.7-3.2c1.3-1.3,2.4-2.9,3.1-4.7c0.8-1.8,1.1-3.7,1.1-5.7c0-2-0.4-4-1.1-5.8c-0.8-1.8-1.8-3.4-3.1-4.7
				c-1.3-1.3-2.9-2.4-4.7-3.2c-1.8-0.8-3.7-1.2-5.8-1.2c-2,0-4,0.4-5.8,1.2c-1.8,0.8-3.4,1.8-4.7,3.2c-1.3,1.3-2.4,2.9-3.2,4.7
				C460.1,119.3,459.7,121.2,459.7,123.3z"/>
			<path fill="#333334" d="M523.8,137.5c1.2,0,2.2,0.4,3,1.3c0.8,0.9,1.2,1.9,1.2,3c0,1.2-0.4,2.1-1.2,2.9c-0.8,0.8-1.8,1.2-3,1.2
				h-0.2c-2.2,0-4.3-0.4-6.2-1.2c-1.9-0.8-3.6-1.9-5-3.2c-1.4-1.4-2.5-3-3.3-5c-0.8-1.9-1.2-4.1-1.2-6.5V87.4c0-1.2,0.4-2.2,1.2-3
				c0.8-0.8,1.7-1.2,2.9-1.2c1.2,0,2.2,0.4,3,1.2c0.9,0.8,1.3,1.8,1.3,3v42.6c0,2.4,0.7,4.2,2.1,5.5
				C519.7,136.9,521.5,137.5,523.8,137.5z"/>
			<g>
				<path fill="#333334" d="M372.8,139.1c0.9-0.9,1.8-1.9,2.4-2.9c1.2-1.8,2.2-3.9,2.9-6.1c0.7-2.2,1.1-4.5,1.1-6.9
					c0-3.2-0.6-6.2-1.8-9.1c-1.2-2.8-2.9-5.3-5-7.4c-2.1-2.1-4.5-3.7-7.4-5c-2.8-1.2-5.8-1.8-9-1.8c-3.2,0-6.2,0.6-9,1.8
					s-5.3,2.9-7.4,5c-2.1,2.1-3.8,4.6-5,7.4c-1.2,2.8-1.8,5.8-1.8,9.1c0,3.2,0.6,6.2,1.8,9c1.2,2.8,2.9,5.3,5,7.4
					c2.1,2.1,4.6,3.8,7.4,5s5.8,1.8,9,1.8c0.1,0,0.2,0,0.3,0c0,0,0,0,0,0c1.9,0,6.7,0,8,0c8.6,0,15.5,7.1,15.3,15.7
					c-0.2,8-6.9,14.6-14.8,14.8c-7.4,0.2-13.7-4.9-15.3-11.8c-0.5-2-2.2-3.5-4.3-3.5c0,0-0.1,0-0.1,0c-2.8,0-4.9,2.6-4.3,5.4
					c2.5,11.1,12.7,19.3,24.7,18.8c12.3-0.6,22.4-10.7,23-23C389,152.1,382.3,142.7,372.8,139.1z M350.2,136.9
					c-1.8-0.8-3.4-1.8-4.7-3.2c-1.3-1.3-2.4-2.9-3.2-4.7c-0.8-1.8-1.2-3.7-1.2-5.7c0-2,0.4-4,1.2-5.8c0.8-1.8,1.8-3.4,3.2-4.7
					c1.3-1.3,2.9-2.4,4.7-3.2c1.8-0.8,3.7-1.2,5.8-1.2c2.1,0,4,0.4,5.8,1.2c1.8,0.8,3.3,1.8,4.7,3.2c1.3,1.3,2.4,2.9,3.1,4.7
					c0.8,1.8,1.1,3.7,1.1,5.8c0,2-0.4,3.9-1.1,5.7c-0.8,1.8-1.8,3.4-3.1,4.7c-1.3,1.3-2.9,2.4-4.7,3.2c-1.8,0.8-3.7,1.2-5.8,1.2
					C353.9,138,352,137.6,350.2,136.9z"/>
			</g>
			<linearGradient id="SVGID_1_" gradientUnits="userSpaceOnUse" x1="338.147" y1="153.2612" x2="347.7353" y2="153.2612">
				<stop  offset="0" style="stop-color:#FFCD03"/>
				<stop  offset="1" style="stop-color:#F04923"/>
			</linearGradient>
			<path fill="url(#SVGID_1_)" d="M338.1,153.3c0-1.4,0.5-2.5,1.4-3.4c0.9-0.9,2.1-1.4,3.4-1.4c1.4,0,2.5,0.5,3.4,1.4
				c0.9,0.9,1.4,2,1.4,3.4c0,0.6-0.1,1.3-0.4,1.8c-0.2,0.6-0.6,1.1-1,1.5c-0.4,0.4-0.9,0.8-1.5,1c-0.6,0.3-1.2,0.4-1.9,0.4
				c-0.6,0-1.3-0.1-1.8-0.4c-0.6-0.3-1.1-0.6-1.5-1c-0.4-0.4-0.8-0.9-1-1.5C338.3,154.5,338.1,153.9,338.1,153.3z"/>
		</g>
	</g>
	<g>
		<linearGradient id="SVGID_2_" gradientUnits="userSpaceOnUse" x1="225.4001" y1="76.2033" x2="2.376919e-007" y2="76.2033">
			<stop  offset="0" style="stop-color:#F04923"/>
			<stop  offset="1" style="stop-color:#FFCD03"/>
		</linearGradient>
		<path fill="url(#SVGID_2_)" d="M225.4,39.1v74c0,13.5-6.8,25.3-17.1,32.4c-6.3,4.4-14,6.9-22.3,6.9h-28.7
			c9.2,0,16.7-7.5,16.7-16.7c0-9.2-7.5-16.7-16.7-16.7h-34.5c-9.2,0-16.7-7.5-16.7-16.7V67.9c0-9.2-7.5-16.7-16.7-16.7
			c-9.2,0-16.7,7.5-16.7,16.7v84.5H39.4c-35,0-52.6-42.3-27.8-67.1l67.9-67.9c1.3-1.9,2.8-3.7,4.4-5.4c0.3-0.4,0.7-0.7,1-1
			c6.6-6.2,15.2-10.1,24.2-10.8c0.5,0,1-0.1,1.5-0.1c0.5,0,0.9,0,1.4,0h1.6c0.5,0,1,0,1.5,0l34.1,0l37.1,0c10,0.1,19.8,4.1,27.1,11
			c0.4,0.3,0.7,0.7,1,1C221,18.7,225.3,28,225.4,39.1z"/>
		
			<linearGradient id="SVGID_3_" gradientUnits="userSpaceOnUse" x1="113.6199" y1="2.114706e-002" x2="149.1758" y2="2.114706e-002">
			<stop  offset="0" style="stop-color:#FFCD03"/>
			<stop  offset="1" style="stop-color:#F04923"/>
		</linearGradient>
		<path fill="url(#SVGID_3_)" d="M149.2,0l-34.1,0c-0.5,0-1,0-1.5,0L149.2,0z"/>
		
			<linearGradient id="SVGID_4_" gradientUnits="userSpaceOnUse" x1="1249.5258" y1="1378.9318" x2="1311.7986" y2="1316.6589" gradientTransform="matrix(4.489700e-011 -1 -1 -4.489700e-011 1394.5492 1394.5492)">
			<stop  offset="0" style="stop-color:#FFCD03"/>
			<stop  offset="1" style="stop-color:#F04923"/>
		</linearGradient>
		<path fill="url(#SVGID_4_)" d="M72.9,152.4H39.4c-35,0-52.6-42.4-27.8-67.1l72.6-73.6C79.9,18,72.9,31,72.9,39.3V152.4z"/>
		<linearGradient id="SVGID_5_" gradientUnits="userSpaceOnUse" x1="80.3279" y1="209.738" x2="181.2948" y2="108.7712">
			<stop  offset="0" style="stop-color:#F04923"/>
			<stop  offset="1" style="stop-color:#FFCD03"/>
		</linearGradient>
		<path fill="url(#SVGID_5_)" d="M72.9,152.4v33.5c0,35,42.4,52.6,67.1,27.8l73.6-72.6c-6.3,4.3-19.3,11.3-27.6,11.3H72.9z"/>
	</g>
</g>
</svg>
